<svg width="24" height="25" viewBox="0 0 24 25" fill="none" xmlns="http://www.w3.org/2000/svg">
<path d="M23.7669 12.3954C23.7669 11.3984 23.686 10.6708 23.5109 9.91632H12.126V14.4163H18.8087C18.674 15.5347 17.9464 17.2188 16.3296 18.3505L16.3069 18.5012L19.9066 21.2898L20.156 21.3147C22.4465 19.1994 23.7669 16.087 23.7669 12.3954Z" fill="#4285F4"/>
<path d="M12.126 24.2519C15.4 24.2519 18.1485 23.174 20.1561 21.3147L16.3296 18.3505C15.3057 19.0646 13.9314 19.5631 12.126 19.5631C8.91938 19.5631 6.1978 17.4479 5.22763 14.5242L5.08543 14.5363L1.34241 17.433L1.29346 17.5691C3.28748 21.5302 7.38337 24.2519 12.126 24.2519Z" fill="#34A853"/>
<path d="M5.22758 14.5242C4.97159 13.7697 4.82344 12.9613 4.82344 12.126C4.82344 11.2906 4.97159 10.4822 5.21411 9.7277L5.20733 9.56701L1.4174 6.62372L1.2934 6.6827C0.47157 8.32646 0 10.1723 0 12.126C0 14.0796 0.47157 15.9254 1.2934 17.5691L5.22758 14.5242Z" fill="#FBBC05"/>
<path d="M12.126 4.68867C14.4029 4.68867 15.9389 5.67221 16.8147 6.49414L20.2369 3.15275C18.1351 1.19913 15.4 0 12.126 0C7.38337 0 3.28748 2.72158 1.29346 6.68269L5.21416 9.72769C6.1978 6.804 8.91938 4.68867 12.126 4.68867Z" fill="#EB4335"/>
</svg>
