<?xml version="1.0" encoding="utf-8"?>
<!-- Generator: Adobe Illustrator 24.0.1, SVG Export Plug-In . SVG Version: 6.00 Build 0)  -->
<svg version="1.1" id="레이어_1" xmlns="http://www.w3.org/2000/svg" xmlns:xlink="http://www.w3.org/1999/xlink" x="0px"
	 y="0px" viewBox="0 0 429 67" style="enable-background:new 0 0 429 67;" xml:space="preserve">
<style type="text/css">
	.st0{fill:#00115E;}
</style>
<path class="st0" d="M59.76,63.06H5.92c-1.35,0-2.45-1.1-2.45-2.45s1.1-2.45,2.45-2.45h53.84c1.35,0,2.45,1.1,2.45,2.45
	S61.11,63.06,59.76,63.06z"/>
<path class="st0" d="M58.24,24.08l1.93-1.93c2.96-2.96,2.96-7.78,0-10.74l-4.85-4.85c-1.43-1.43-3.34-2.22-5.37-2.22
	c-2.03,0-3.94,0.79-5.37,2.22l-2.06,2.06L58.24,24.08z"/>
<path class="st0" d="M8.26,44.43L3.47,59.89c-0.27,0.86-0.04,1.79,0.59,2.44c0.47,0.48,1.1,0.73,1.75,0.73
	c0.23,0,0.45-0.03,0.68-0.09l16.26-4.67L8.26,44.43z"/>
<polygon class="st0" points="39.05,12.07 10.92,40.21 26.86,55.46 54.78,27.54 "/>
<path class="st0" d="M118.35,22H97.3v9.63h17.82v7.63H97.3v17.09h-7.52V14.6h28.56V22z"/>
<path class="st0" d="M121.1,24.84c1.91-3.27,4.48-5.86,7.71-7.79c3.23-1.93,6.72-2.9,10.47-2.9c3.75,0,7.24,0.97,10.47,2.9
	c3.23,1.93,5.8,4.53,7.71,7.79c1.91,3.27,2.87,6.81,2.87,10.63c0,3.86-0.96,7.42-2.87,10.69c-1.91,3.27-4.48,5.86-7.71,7.77
	c-3.23,1.91-6.72,2.87-10.47,2.87c-3.75,0-7.24-0.96-10.47-2.87c-3.23-1.91-5.8-4.5-7.71-7.77c-1.91-3.27-2.87-6.83-2.87-10.69
	C118.23,31.65,119.19,28.11,121.1,24.84z M145.96,47.39c2.08-1.23,3.74-2.9,4.98-5.01c1.24-2.12,1.87-4.42,1.87-6.9
	c0-2.49-0.62-4.78-1.87-6.88c-1.24-2.1-2.91-3.76-4.98-4.98c-2.08-1.23-4.31-1.84-6.68-1.84c-2.38,0-4.6,0.61-6.68,1.84
	c-2.08,1.22-3.74,2.89-4.98,4.98c-1.24,2.1-1.87,4.39-1.87,6.88c0,2.49,0.62,4.79,1.87,6.9c1.24,2.12,2.9,3.79,4.98,5.01
	c2.08,1.22,4.31,1.84,6.68,1.84C141.66,49.23,143.88,48.62,145.96,47.39z"/>
<path class="st0" d="M172.41,53.91c-3.16-1.93-5.65-4.52-7.49-7.77c-1.84-3.25-2.76-6.8-2.76-10.66c0-3.86,0.92-7.41,2.76-10.66
	c1.84-3.25,4.33-5.84,7.49-7.77c3.15-1.93,6.61-2.9,10.36-2.9c2.82,0,5.49,0.55,8.02,1.64c2.52,1.1,4.71,2.63,6.57,4.59l-4.84,5.68
	c-1.11-1.11-2.58-2.01-4.4-2.7c-1.82-0.69-3.6-1.03-5.35-1.03c-2.26,0-4.4,0.59-6.4,1.78c-2,1.19-3.61,2.78-4.82,4.79
	c-1.21,2-1.81,4.19-1.81,6.57c0,2.38,0.6,4.58,1.81,6.6c1.21,2.02,2.81,3.63,4.82,4.82c2,1.19,4.14,1.78,6.4,1.78
	c1.74,0,3.53-0.35,5.35-1.06c1.82-0.71,3.29-1.61,4.4-2.73l4.84,5.68c-1.86,1.97-4.05,3.5-6.57,4.59c-2.52,1.09-5.2,1.64-8.02,1.64
	C179.02,56.8,175.56,55.84,172.41,53.91z"/>
<path class="st0" d="M232.26,48.17c-1.56,2.64-3.65,4.72-6.26,6.26c-2.62,1.54-5.41,2.31-8.38,2.31c-3.04,0-5.87-0.77-8.49-2.31
	c-2.62-1.54-4.7-3.63-6.24-6.26c-1.54-2.64-2.31-5.49-2.31-8.57v-25h7.63v24.78c0,1.78,0.43,3.42,1.28,4.9
	c0.85,1.48,1.99,2.66,3.42,3.54c1.43,0.87,3,1.31,4.7,1.31c1.67,0,3.22-0.44,4.65-1.31c1.43-0.87,2.58-2.05,3.45-3.54
	c0.87-1.48,1.31-3.12,1.31-4.9V14.6h7.57v25C234.6,42.68,233.82,45.54,232.26,48.17z"/>
<path class="st0" d="M261.33,24.29c-0.45-0.37-1.08-0.78-1.89-1.23c-1.93-1.08-4.05-1.61-6.35-1.61c-0.74,0-1.45,0.06-2.12,0.17
	c-1.11,0.19-2.04,0.51-2.78,0.97c-0.74,0.46-1.26,1.18-1.56,2.14c-0.19,0.3-0.28,0.67-0.28,1.11c0,0.89,0.28,1.75,0.84,2.56
	c0.7,0.71,1.3,1.21,1.78,1.5c0.37,0.26,0.76,0.46,1.17,0.61c0.41,0.15,1.04,0.32,1.89,0.5l2.78,0.72c3.45,0.71,6.11,1.47,7.96,2.28
	c1.86,0.82,3.29,1.73,4.29,2.73c0.89,0.85,1.63,1.97,2.23,3.34c0.59,1.37,0.89,2.86,0.89,4.45c0,1.34-0.24,2.71-0.72,4.12
	c-0.52,1.15-1.35,2.31-2.48,3.48c-1.13,1.17-2.31,2.13-3.54,2.87c-2.38,1.11-4.42,1.78-6.13,2c-1.22,0.19-2.34,0.28-3.34,0.28
	c-3.42,0-6.79-0.89-10.13-2.67c-2.08-1.15-3.77-2.51-5.07-4.06c-1.3-1.56-2.15-2.93-2.56-4.12l7.46-2.56
	c0.15,0.48,0.54,1.09,1.17,1.81c0.63,0.72,1.52,1.4,2.67,2.03c1.19,0.63,2.26,1.08,3.23,1.34c0.96,0.26,1.97,0.39,3.01,0.39
	c0.48,0,1.32-0.07,2.51-0.22c0.74-0.11,1.89-0.5,3.45-1.17c1.04-0.67,1.86-1.47,2.45-2.39c0.15-0.48,0.22-0.96,0.22-1.45
	c0-0.74-0.26-1.34-0.78-1.78c-0.56-0.56-1.4-1.06-2.53-1.5c-1.13-0.45-3.11-0.95-5.93-1.5l-3.01-0.72
	c-2.34-0.59-4.18-1.34-5.51-2.23c-0.93-0.56-1.69-1.15-2.28-1.78c-0.59-0.63-0.95-0.98-1.06-1.06c-0.82-0.93-1.47-2.13-1.95-3.62
	c-0.48-1.48-0.72-2.97-0.72-4.45c0-1.41,0.22-2.67,0.67-3.79c0.85-2.26,2.27-4.06,4.26-5.4c1.99-1.34,4.05-2.19,6.21-2.56
	c0.89-0.11,1.87-0.17,2.95-0.17c3.93,0,7.44,0.84,10.52,2.51c2.49,1.34,4.44,3.04,5.85,5.12l-6.57,4.34
	C262.17,25.1,261.78,24.66,261.33,24.29z"/>
<path class="st0" d="M305.44,24.29c-0.45-0.37-1.08-0.78-1.89-1.23c-1.93-1.08-4.05-1.61-6.35-1.61c-0.74,0-1.45,0.06-2.12,0.17
	c-1.11,0.19-2.04,0.51-2.78,0.97c-0.74,0.46-1.26,1.18-1.56,2.14c-0.19,0.3-0.28,0.67-0.28,1.11c0,0.89,0.28,1.75,0.84,2.56
	c0.7,0.71,1.3,1.21,1.78,1.5c0.37,0.26,0.76,0.46,1.17,0.61c0.41,0.15,1.04,0.32,1.89,0.5l2.78,0.72c3.45,0.71,6.11,1.47,7.96,2.28
	c1.86,0.82,3.29,1.73,4.29,2.73c0.89,0.85,1.63,1.97,2.23,3.34c0.59,1.37,0.89,2.86,0.89,4.45c0,1.34-0.24,2.71-0.72,4.12
	c-0.52,1.15-1.35,2.31-2.48,3.48c-1.13,1.17-2.31,2.13-3.54,2.87c-2.38,1.11-4.42,1.78-6.13,2c-1.22,0.19-2.34,0.28-3.34,0.28
	c-3.42,0-6.79-0.89-10.13-2.67c-2.08-1.15-3.77-2.51-5.07-4.06c-1.3-1.56-2.15-2.93-2.56-4.12l7.46-2.56
	c0.15,0.48,0.54,1.09,1.17,1.81c0.63,0.72,1.52,1.4,2.67,2.03c1.19,0.63,2.26,1.08,3.23,1.34c0.96,0.26,1.97,0.39,3.01,0.39
	c0.48,0,1.32-0.07,2.51-0.22c0.74-0.11,1.89-0.5,3.45-1.17c1.04-0.67,1.86-1.47,2.45-2.39c0.15-0.48,0.22-0.96,0.22-1.45
	c0-0.74-0.26-1.34-0.78-1.78c-0.56-0.56-1.4-1.06-2.53-1.5c-1.13-0.45-3.11-0.95-5.93-1.5l-3.01-0.72
	c-2.34-0.59-4.18-1.34-5.51-2.23c-0.93-0.56-1.69-1.15-2.28-1.78c-0.59-0.63-0.95-0.98-1.06-1.06c-0.82-0.93-1.47-2.13-1.95-3.62
	c-0.48-1.48-0.72-2.97-0.72-4.45c0-1.41,0.22-2.67,0.67-3.79c0.85-2.26,2.27-4.06,4.26-5.4c1.99-1.34,4.05-2.19,6.21-2.56
	c0.89-0.11,1.87-0.17,2.95-0.17c3.93,0,7.44,0.84,10.52,2.51c2.49,1.34,4.44,3.04,5.85,5.12l-6.57,4.34
	C306.27,25.1,305.88,24.66,305.44,24.29z"/>
<path class="st0" d="M316.8,14.6h17.98c2.6,0,4.98,0.64,7.15,1.92c2.17,1.28,3.89,3.01,5.15,5.18c1.26,2.17,1.89,4.56,1.89,7.15
	c0,2.56-0.63,4.94-1.89,7.13c-1.26,2.19-2.98,3.93-5.15,5.21c-2.17,1.28-4.56,1.92-7.15,1.92h-10.41v13.25h-7.57V14.6z
	 M338.18,34.48c1-0.59,1.8-1.39,2.39-2.39c0.59-1,0.89-2.08,0.89-3.23c0-1.78-0.64-3.3-1.92-4.57c-1.28-1.26-2.81-1.89-4.59-1.89
	h-10.58v12.97h10.58C336.1,35.37,337.17,35.07,338.18,34.48z"/>
<path class="st0" d="M353.9,24.84c1.91-3.27,4.48-5.86,7.71-7.79c3.23-1.93,6.72-2.9,10.47-2.9c3.75,0,7.24,0.97,10.47,2.9
	c3.23,1.93,5.8,4.53,7.71,7.79c1.91,3.27,2.87,6.81,2.87,10.63c0,3.86-0.96,7.42-2.87,10.69c-1.91,3.27-4.48,5.86-7.71,7.77
	c-3.23,1.91-6.72,2.87-10.47,2.87c-3.75,0-7.24-0.96-10.47-2.87c-3.23-1.91-5.8-4.5-7.71-7.77c-1.91-3.27-2.87-6.83-2.87-10.69
	C351.03,31.65,351.99,28.11,353.9,24.84z M378.76,47.39c2.08-1.23,3.74-2.9,4.98-5.01c1.24-2.12,1.87-4.42,1.87-6.9
	c0-2.49-0.62-4.78-1.87-6.88c-1.24-2.1-2.91-3.76-4.98-4.98c-2.08-1.23-4.31-1.84-6.68-1.84c-2.38,0-4.6,0.61-6.68,1.84
	c-2.08,1.22-3.74,2.89-4.98,4.98c-1.24,2.1-1.87,4.39-1.87,6.88c0,2.49,0.62,4.79,1.87,6.9c1.24,2.12,2.9,3.79,4.98,5.01
	c2.08,1.22,4.31,1.84,6.68,1.84C374.45,49.23,376.68,48.62,378.76,47.39z"/>
<path class="st0" d="M422.64,22h-11.19v34.35h-7.63V22h-11.36V14.6h30.18V22z"/>
</svg>
