<svg width="12" height="16" viewBox="0 0 12 16" fill="none" xmlns="http://www.w3.org/2000/svg">
<g clip-path="url(#clip0_78_150)">
<path d="M6 0C2.69077 0 0 2.79529 0 6.23059C0 7.34588 0.166154 7.94824 0.466154 8.92706C1.21385 11.3882 4.34769 14.5271 5.37692 15.5576C5.47846 15.6565 5.54769 15.7271 5.59846 15.7835C5.60769 15.8024 5.61231 15.8212 5.62615 15.8353C5.67692 15.8965 5.74154 15.9341 5.81077 15.9576C5.87077 15.9859 5.93538 16 6 16C6.01846 16 6.03231 15.9906 6.05077 15.9906C6.17538 15.9859 6.29538 15.9294 6.37846 15.8353C6.39231 15.8212 6.39692 15.8024 6.40615 15.7835C6.46154 15.7271 6.53077 15.6565 6.63231 15.5576C7.66154 14.5271 10.7862 11.3929 11.5338 8.94118C11.8338 7.96235 12.0046 7.35059 12.0046 6.23059C12 2.79529 9.30923 0 6 0ZM6 3.57647C7.27385 3.57647 8.30769 4.63059 8.30769 5.92941C8.30769 7.22824 7.27385 8.28235 6 8.28235C4.72615 8.28235 3.69231 7.22824 3.69231 5.92941C3.69231 4.63529 4.72615 3.57647 6 3.57647Z" fill="#2F3B84"/>
</g>
<defs>
<clipPath id="clip0_78_150">
<rect width="12" height="16" fill="white"/>
</clipPath>
</defs>
</svg>
