<svg width="14" height="14" viewBox="0 0 14 14" fill="none" xmlns="http://www.w3.org/2000/svg">
<g clip-path="url(#clip0_78_156)">
<path d="M11.451 8.30216C11.0115 7.86726 10.3084 7.85749 9.87864 8.29239L9.1657 9.00583C8.97038 9.18663 8.82876 9.2697 8.77993 9.29414C8.33557 9.45539 7.45172 9.5971 6.51903 8.73218L5.29825 7.51054C4.3851 6.52345 4.58531 5.59501 4.7025 5.2725C4.7611 5.14544 4.85876 5.00373 4.98572 4.86202L5.7182 4.12904C5.92817 3.91892 6.04049 3.64527 6.04049 3.34719C6.04049 3.054 5.92817 2.77546 5.74261 2.58977L3.7161 0.253996C3.5159 0.0585336 3.21314 -0.0343111 2.85179 0.0145545C2.54415 0.053647 2.23651 0.200244 2.0363 0.400593L1.04014 1.39745C-1.9337 4.95975 2.40254 9.37721 2.44648 9.42119L4.59019 11.5664C4.62437 11.6006 7.06106 13.9999 9.79075 13.9999C10.7381 13.9999 11.7196 13.7116 12.6523 12.9297L13.5996 11.9817C13.8047 11.7814 13.9463 11.4735 13.9854 11.1657C14.0293 10.8187 13.9463 10.5109 13.7119 10.2714L11.451 8.30216Z" fill="#2F3B84"/>
</g>
<defs>
<clipPath id="clip0_78_156">
<rect width="14" height="14" fill="white"/>
</clipPath>
</defs>
</svg>
