<svg width="14" height="12" viewBox="0 0 14 12" fill="none" xmlns="http://www.w3.org/2000/svg">
<g clip-path="url(#clip0_67_295)">
<path d="M13.6316 0H8.19368C7.71474 0 7.28737 0.22875 7 0.58125C6.71263 0.22875 6.28526 0 5.80632 0H0.368421C0.165789 0 0 0.16875 0 0.375V10.395C0 10.6012 0.165789 10.77 0.368421 10.77H5.80632C6.26316 10.77 6.63158 11.1525 6.63158 11.625C6.63158 11.8313 6.79737 12 7 12C7.20263 12 7.36842 11.8313 7.36842 11.625C7.36842 11.1562 7.74053 10.77 8.19368 10.77H13.6316C13.8342 10.77 14 10.6012 14 10.395V0.375C14 0.16875 13.8342 0 13.6316 0ZM5.53 8.44875H1.88263V7.69875H5.53V8.44875ZM5.53 6.645H1.88263V5.895H5.53V6.645ZM5.53 4.84125H1.88263V4.09125H5.53V4.84125ZM5.53 3.0375H1.88263V2.2875H5.53V3.0375ZM12.1174 8.44875H8.47V7.69875H12.1174V8.44875ZM12.1174 6.645H8.47V5.895H12.1174V6.645ZM12.1174 4.84125H8.47V4.09125H12.1174V4.84125ZM12.1174 3.0375H8.47V2.2875H12.1174V3.0375Z" fill="white"/>
</g>
<defs>
<clipPath id="clip0_67_295">
<rect width="14" height="12" fill="white"/>
</clipPath>
</defs>
</svg>
