<svg width="14" height="14" viewBox="0 0 14 14" fill="none" xmlns="http://www.w3.org/2000/svg">
<g clip-path="url(#clip0_67_292)">
<path d="M4.7738 12.7128C4.78214 12.7086 4.79049 12.7044 4.79883 12.7003C4.81135 12.6961 4.8197 12.6919 4.83222 12.6877C4.87395 12.6668 4.91567 12.6418 4.94906 12.6125L4.95323 12.6083L4.9574 12.6042L12.623 4.92714L13.5076 4.04117C14.1586 3.38923 14.1586 2.32773 13.5076 1.67579L12.3267 0.493106C11.6757 -0.158835 10.6158 -0.158835 9.96485 0.493106L9.0802 1.37908L1.41463 9.06027C1.41046 9.06445 1.41046 9.06863 1.40628 9.07281C1.37707 9.10624 1.35204 9.14385 1.33535 9.18146C1.33117 9.18982 1.327 9.20236 1.32283 9.21072C1.31865 9.21908 1.31448 9.22326 1.31448 9.23161L0.0250626 13.4065C-0.0208391 13.5528 0.0167168 13.7116 0.125212 13.8245C0.204496 13.9039 0.312991 13.9498 0.421486 13.9498C0.429832 13.9498 0.434004 13.9456 0.44235 13.9456V14.0042H13.7956V13.1683H3.19645L4.7738 12.7128ZM10.5616 1.07818C10.8871 0.75221 11.417 0.75221 11.7425 1.07818L12.9234 2.26087C13.2489 2.58684 13.2489 3.11758 12.9234 3.44355L12.335 4.03281L9.96903 1.67161L10.5616 1.07818ZM1.90286 10.1385L3.86411 12.1027L1.04324 12.9134L1.90286 10.1385Z" fill="white"/>
</g>
<defs>
<clipPath id="clip0_67_292">
<rect width="14" height="14" fill="white"/>
</clipPath>
</defs>
</svg>
