<svg width="129" height="19" viewBox="0 0 129 19" fill="none" xmlns="http://www.w3.org/2000/svg">
<path d="M17.353 18.4487H0.788091C0.372738 18.4487 0.0343018 18.1031 0.0343018 17.6789C0.0343018 17.2548 0.372738 16.9092 0.788091 16.9092H17.353C17.7684 16.9092 18.1068 17.2548 18.1068 17.6789C18.1068 18.1031 17.7684 18.4487 17.353 18.4487Z" fill="white"/>
<path d="M16.8854 6.20194L17.4792 5.59557C18.3899 4.66559 18.3899 3.15124 17.4792 2.22126L15.987 0.697482C15.547 0.248203 14.9594 0 14.3348 0C13.7102 0 13.1226 0.248203 12.6826 0.697482L12.0488 1.3447L16.8854 6.20194Z" fill="white"/>
<path d="M1.50801 12.5956L0.0342752 17.4528C-0.0487955 17.723 0.0219684 18.0152 0.2158 18.2194C0.360405 18.3702 0.554236 18.4488 0.754221 18.4488C0.824985 18.4488 0.892672 18.4394 0.963436 18.4205L5.96614 16.9533L1.50801 12.5956Z" fill="white"/>
<path d="M10.9812 2.42859L2.32642 11.2697L7.23066 16.0609L15.8208 7.28897L10.9812 2.42859Z" fill="white"/>
<path d="M35.3793 5.54845H28.9029V8.57402H34.3856V10.9712H28.9029V16.3406H26.5892V3.22351H35.3763V5.54845H35.3793Z" fill="white"/>
<path d="M36.2254 6.44075C36.8131 5.41338 37.6038 4.59965 38.5975 3.99328C39.5913 3.38691 40.6651 3.08215 41.8188 3.08215C42.9726 3.08215 44.0464 3.38691 45.0401 3.99328C46.0339 4.59965 46.8246 5.41652 47.4123 6.44075C47.9999 7.46812 48.2953 8.58033 48.2953 9.7805C48.2953 10.9932 47.9999 12.1117 47.4123 13.1391C46.8246 14.1665 46.0339 14.9802 45.0401 15.5803C44.0464 16.1804 42.9726 16.482 41.8188 16.482C40.6651 16.482 39.5913 16.1804 38.5975 15.5803C37.6038 14.9802 36.8131 14.1665 36.2254 13.1391C35.6378 12.1117 35.3424 10.9932 35.3424 9.7805C35.3424 8.58033 35.6378 7.46812 36.2254 6.44075ZM43.8741 13.5255C44.514 13.1391 45.0248 12.6144 45.4063 11.9515C45.7878 11.2854 45.9816 10.5628 45.9816 9.78364C45.9816 9.00133 45.7909 8.28185 45.4063 7.62207C45.0248 6.96229 44.511 6.44075 43.8741 6.05745C43.2341 5.67101 42.548 5.47936 41.8188 5.47936C41.0866 5.47936 40.4036 5.67101 39.7636 6.05745C39.1237 6.44075 38.6129 6.96543 38.2314 7.62207C37.8499 8.28185 37.6561 9.00133 37.6561 9.78364C37.6561 10.566 37.8468 11.2886 38.2314 11.9515C38.6129 12.6176 39.1237 13.1422 39.7636 13.5255C40.4036 13.9088 41.0897 14.1036 41.8188 14.1036C42.5511 14.1036 43.2341 13.912 43.8741 13.5255Z" fill="white"/>
<path d="M52.012 15.574C51.0398 14.9676 50.2737 14.1539 49.7076 13.1328C49.1415 12.1117 48.8584 10.9964 48.8584 9.78364C48.8584 8.5709 49.1415 7.45556 49.7076 6.43447C50.2737 5.41338 51.0398 4.59965 52.012 3.99328C52.9812 3.38691 54.0457 3.08215 55.1995 3.08215C56.0671 3.08215 56.8886 3.25495 57.667 3.59741C58.4423 3.94301 59.1161 4.42371 59.6884 5.0395L58.1992 6.82405C57.8577 6.47531 57.4054 6.19255 56.8455 5.97576C56.2855 5.75898 55.7379 5.65216 55.1995 5.65216C54.5041 5.65216 53.8457 5.83752 53.2304 6.2114C52.615 6.58528 52.1197 7.08482 51.7474 7.71633C51.3751 8.34469 51.1905 9.03275 51.1905 9.7805C51.1905 10.5283 51.3751 11.2194 51.7474 11.8541C52.1197 12.4887 52.612 12.9946 53.2304 13.3684C53.8457 13.7423 54.5041 13.9277 55.1995 13.9277C55.7348 13.9277 56.2855 13.8177 56.8455 13.5947C57.4054 13.3716 57.8577 13.0888 58.1992 12.7369L59.6884 14.5215C59.1161 15.1404 58.4423 15.6211 57.667 15.9636C56.8916 16.306 56.0671 16.4788 55.1995 16.4788C54.0457 16.482 52.9812 16.1804 52.012 15.574Z" fill="white"/>
<path d="M70.4259 13.7706C69.946 14.6 69.3029 15.2535 68.4999 15.7374C67.6938 16.2212 66.8354 16.4631 65.9216 16.4631C64.9863 16.4631 64.1156 16.2212 63.3095 15.7374C62.5034 15.2535 61.8635 14.5969 61.3897 13.7706C60.9159 12.9411 60.679 12.0457 60.679 11.078V3.22351H63.0265V11.0089C63.0265 11.5682 63.1588 12.0834 63.4203 12.5484C63.6818 13.0134 64.0326 13.3841 64.4725 13.6606C64.9125 13.934 65.3955 14.0722 65.9186 14.0722C66.4324 14.0722 66.9093 13.934 67.3492 13.6606C67.7892 13.3873 68.143 13.0165 68.4107 12.5484C68.6784 12.0834 68.8137 11.5682 68.8137 11.0089V3.22351H71.1428V11.078C71.1459 12.0457 70.9059 12.9443 70.4259 13.7706Z" fill="white"/>
<path d="M79.3699 6.26794C79.2314 6.15169 79.0376 6.02288 78.7884 5.88149C78.1946 5.54218 77.5423 5.37566 76.8347 5.37566C76.607 5.37566 76.3886 5.39451 76.1824 5.42907C75.8409 5.48877 75.5548 5.58931 75.3271 5.73383C75.0994 5.87835 74.9394 6.10456 74.8471 6.40618C74.7887 6.50043 74.761 6.61668 74.761 6.75492C74.761 7.03454 74.8471 7.30474 75.0194 7.55922C75.2348 7.78229 75.4194 7.93938 75.5671 8.03049C75.6809 8.11218 75.8009 8.17502 75.9271 8.22215C76.0532 8.26927 76.247 8.32268 76.5086 8.37924L77.3639 8.60545C78.4253 8.82852 79.2437 9.06729 79.8129 9.32178C80.3852 9.57941 80.8252 9.86531 81.1328 10.1795C81.4067 10.4465 81.6343 10.7984 81.8189 11.2289C82.0005 11.6593 82.0928 12.1274 82.0928 12.627C82.0928 13.048 82.0189 13.4784 81.8712 13.9214C81.7112 14.2827 81.4559 14.6472 81.1082 15.0147C80.7606 15.3823 80.3975 15.684 80.0191 15.9164C79.2868 16.2652 78.6592 16.4757 78.1331 16.5448C77.7577 16.6045 77.4131 16.6328 77.1054 16.6328C76.0532 16.6328 75.0164 16.3532 73.9887 15.7939C73.3488 15.4326 72.8288 15.0053 72.4289 14.5183C72.0289 14.0282 71.7674 13.5978 71.6412 13.2239L73.9364 12.4196C73.9826 12.5704 74.1026 12.7621 74.2964 12.9883C74.4902 13.2145 74.7641 13.4281 75.1179 13.6261C75.484 13.824 75.8132 13.9654 76.1117 14.0471C76.407 14.1288 76.7178 14.1696 77.0378 14.1696C77.1854 14.1696 77.4439 14.1476 77.81 14.1005C78.0377 14.0659 78.3915 13.9434 78.8715 13.7329C79.1914 13.5224 79.4437 13.271 79.6253 12.982C79.6714 12.8312 79.6929 12.6804 79.6929 12.5264C79.6929 12.2939 79.6129 12.1054 79.453 11.9672C79.2807 11.7912 79.0222 11.6342 78.6746 11.4959C78.3269 11.3545 77.7177 11.1974 76.8501 11.0246L75.924 10.7984C75.204 10.6131 74.6379 10.3774 74.2287 10.0978C73.9426 9.92187 73.7088 9.7365 73.5272 9.53857C73.3457 9.34063 73.235 9.23067 73.2011 9.20553C72.9488 8.91334 72.7488 8.53633 72.6012 8.0682C72.4535 7.60321 72.3796 7.13508 72.3796 6.67009C72.3796 6.22709 72.4473 5.83123 72.5858 5.47934C72.8473 4.76929 73.2842 4.20377 73.8964 3.78276C74.5087 3.36176 75.1425 3.09471 75.8071 2.97846C76.0809 2.9439 76.3824 2.92505 76.7147 2.92505C77.9238 2.92505 79.0038 3.18896 79.9514 3.71364C80.7175 4.13465 81.3174 4.66876 81.7512 5.32225L79.7299 6.6858C79.6283 6.52242 79.5083 6.38419 79.3699 6.26794Z" fill="white"/>
<path d="M92.9412 6.26794C92.8027 6.15169 92.6089 6.02288 92.3597 5.88149C91.7659 5.54218 91.1136 5.37566 90.406 5.37566C90.1783 5.37566 89.9599 5.39451 89.7537 5.42907C89.4122 5.48877 89.1261 5.58931 88.8984 5.73383C88.6707 5.87835 88.5107 6.10456 88.4184 6.40618C88.36 6.50043 88.3323 6.61668 88.3323 6.75492C88.3323 7.03454 88.4184 7.30474 88.5907 7.55922C88.8061 7.78229 88.9907 7.93938 89.1384 8.03049C89.2522 8.11218 89.3722 8.17502 89.4984 8.22215C89.6245 8.26927 89.8183 8.32268 90.0799 8.37924L90.9352 8.60545C91.9966 8.82852 92.815 9.06729 93.3842 9.32178C93.9565 9.57941 94.3965 9.86531 94.7041 10.1795C94.9779 10.4465 95.2056 10.7984 95.3902 11.2289C95.5717 11.6593 95.664 12.1274 95.664 12.627C95.664 13.048 95.5902 13.4784 95.4425 13.9214C95.2825 14.2827 95.0272 14.6472 94.6795 15.0147C94.3318 15.3823 93.9688 15.6839 93.5904 15.9164C92.8581 16.2652 92.2305 16.4757 91.7043 16.5448C91.329 16.6045 90.9844 16.6328 90.6767 16.6328C89.6245 16.6328 88.5877 16.3532 87.56 15.7939C86.9201 15.4326 86.4001 15.0053 86.0002 14.5183C85.6002 14.0282 85.3387 13.5978 85.2125 13.2239L87.5077 12.4196C87.5539 12.5704 87.6739 12.7621 87.8677 12.9883C88.0615 13.2145 88.3354 13.4281 88.6892 13.6261C89.0553 13.824 89.3845 13.9654 89.683 14.0471C89.9783 14.1288 90.2891 14.1696 90.609 14.1696C90.7567 14.1696 91.0152 14.1476 91.3813 14.1005C91.609 14.0659 91.9628 13.9434 92.4428 13.7329C92.7627 13.5224 93.015 13.271 93.1965 12.982C93.2427 12.8312 93.2642 12.6804 93.2642 12.5264C93.2642 12.2939 93.1842 12.1054 93.0242 11.9672C92.8519 11.7912 92.5935 11.6342 92.2458 11.4959C91.8982 11.3545 91.289 11.1974 90.4214 11.0246L89.4953 10.7984C88.7753 10.6131 88.2092 10.3774 87.8 10.0978C87.5139 9.92187 87.2801 9.7365 87.0985 9.53856C86.917 9.34063 86.8063 9.23067 86.7724 9.20553C86.5201 8.91334 86.3201 8.53633 86.1725 8.0682C86.0248 7.60321 85.9509 7.13508 85.9509 6.67009C85.9509 6.22709 86.0186 5.83123 86.1571 5.47934C86.4186 4.76929 86.8555 4.20377 87.4677 3.78276C88.08 3.36176 88.7138 3.09471 89.3784 2.97846C89.6522 2.9439 89.9537 2.92505 90.286 2.92505C91.4951 2.92505 92.575 3.18896 93.5227 3.71364C94.2888 4.13465 94.8887 4.66876 95.3225 5.32225L93.3011 6.6858C93.1965 6.52242 93.0765 6.38419 92.9412 6.26794Z" fill="white"/>
<path d="M96.4363 3.22351H101.968C102.768 3.22351 103.5 3.42459 104.168 3.82674C104.836 4.22889 105.365 4.77242 105.753 5.4542C106.14 6.13597 106.334 6.88686 106.334 7.70059C106.334 8.5049 106.14 9.25265 105.753 9.94071C105.365 10.6288 104.836 11.1754 104.168 11.5776C103.5 11.9797 102.765 12.1808 101.968 12.1808H98.7653V16.3437H96.4363V3.22351ZM103.014 9.46943C103.322 9.28407 103.568 9.03272 103.75 8.71854C103.931 8.40436 104.023 8.06504 104.023 7.70374C104.023 7.14449 103.827 6.66694 103.433 6.26793C103.039 5.87206 102.568 5.67412 102.02 5.67412H98.7653V9.74906H102.02C102.374 9.74906 102.704 9.6548 103.014 9.46943Z" fill="white"/>
<path d="M107.851 6.44075C108.438 5.41338 109.229 4.59965 110.223 3.99328C111.217 3.38691 112.29 3.08215 113.444 3.08215C114.598 3.08215 115.672 3.38691 116.666 3.99328C117.659 4.59965 118.45 5.41652 119.038 6.44075C119.625 7.46812 119.921 8.58033 119.921 9.7805C119.921 10.9932 119.625 12.1117 119.038 13.1391C118.45 14.1665 117.659 14.9802 116.666 15.5803C115.672 16.1804 114.598 16.482 113.444 16.482C112.29 16.482 111.217 16.1804 110.223 15.5803C109.229 14.9802 108.438 14.1665 107.851 13.1391C107.263 12.1117 106.968 10.9932 106.968 9.7805C106.968 8.58033 107.263 7.46812 107.851 6.44075ZM115.499 13.5255C116.139 13.1391 116.65 12.6144 117.032 11.9515C117.413 11.2854 117.607 10.5628 117.607 9.78364C117.607 9.00133 117.416 8.28185 117.032 7.62207C116.65 6.96229 116.136 6.44075 115.499 6.05745C114.859 5.67101 114.173 5.47936 113.444 5.47936C112.712 5.47936 112.029 5.67101 111.389 6.05745C110.749 6.44075 110.238 6.96543 109.857 7.62207C109.475 8.28185 109.281 9.00133 109.281 9.78364C109.281 10.566 109.472 11.2886 109.857 11.9515C110.238 12.6176 110.749 13.1422 111.389 13.5255C112.029 13.9088 112.715 14.1036 113.444 14.1036C114.173 14.1036 114.859 13.912 115.499 13.5255Z" fill="white"/>
<path d="M129 5.54845H125.557V16.3406H123.21V5.54845H119.714V3.22351H129V5.54845Z" fill="white"/>
</svg>
