<svg width="11" height="14" viewBox="0 0 11 14" fill="none" xmlns="http://www.w3.org/2000/svg">
<g clip-path="url(#clip0_67_299)">
<path d="M10.3915 3.80051H10.2921C10.2901 3.79098 10.2901 3.78146 10.288 3.77193C10.0791 3.01945 9.68154 2.35079 9.14807 1.80595L10.3083 1.04013C10.5822 0.859156 10.6491 0.501012 10.4564 0.243835C10.2637 -0.0133433 9.88438 -0.0762089 9.60852 0.104768L8.18864 1.04394C7.40771 0.569593 6.48073 0.29908 5.50101 0.29908C3.22921 0.29908 1.26166 1.73928 0.707911 3.80241H0.608519C0.271805 3.80241 0 4.05769 0 4.37392C0 4.69015 0.271805 4.94543 0.608519 4.94543H0.776876L1.6572 13.4856C1.68763 13.779 1.94929 14.0019 2.26369 14.0019H8.74239C9.05477 14.0019 9.31846 13.779 9.34888 13.4856L10.2333 4.94543H10.3955C10.7323 4.94543 11.0041 4.69015 11.0041 4.37392C11 4.05578 10.7282 3.80051 10.3915 3.80051ZM8.34888 2.68417C8.64097 3.00802 8.87424 3.38331 9.02637 3.80051H7.61663L8.34888 2.68417ZM5.50101 1.44019C6.1927 1.44019 6.84787 1.62116 7.40974 1.9374L6.18458 3.80051H1.97363C2.48682 2.39651 3.8925 1.44019 5.50101 1.44019ZM2.81339 12.857L2.69574 11.7159H8.30426L8.18661 12.857H2.81339ZM8.89655 6.00081H2.10751L1.99797 4.94352H9.00609L8.89655 6.00081Z" fill="white"/>
</g>
<defs>
<clipPath id="clip0_67_299">
<rect width="11" height="14" fill="white"/>
</clipPath>
</defs>
</svg>
